<svg width="4096" height="4096" viewBox="0 0 4096 4096" fill="none" xmlns="http://www.w3.org/2000/svg">
<rect width="4096" height="4096" fill="#222D42"/>
<g filter="url(#filter0_i_5_2)">
<path d="M3871.04 2266.23C3865.41 2427.46 3846.29 2580.89 3813.69 2726.5C3782.92 2872.19 3742.59 3002.86 3692.69 3118.52C3642.79 3234.18 3587.34 3324.89 3526.34 3390.63C3463.51 3456.31 3400.03 3488.03 3335.9 3485.79C3286.43 3484.06 3245.49 3474.38 3213.09 3456.74C3180.69 3439.1 3156.69 3417.16 3141.09 3390.94C3123.67 3364.64 3111.77 3337.63 3105.4 3309.89C3097.26 3280.26 3093.61 3253.53 3094.44 3229.71C3096.55 3169.25 3118.57 3090.22 3160.51 2992.62C3202.44 2895.02 3244.91 2781.85 3287.93 2653.11C3330.95 2524.37 3355.18 2382.13 3360.62 2226.39C3364.91 2103.63 3357.85 1990.56 3339.44 1887.19C3321.04 1783.82 3292.11 1692.92 3252.66 1614.5C3211.37 1536.01 3161.23 1474.64 3102.24 1430.39C3041.42 1386.07 2972.53 1362.57 2895.58 1359.88C2785.64 1356.04 2695.85 1379.5 2626.21 1430.27C2556.62 1479.21 2500.99 1548.81 2459.32 1639.07C2417.7 1727.51 2382.97 1829.03 2355.12 1943.62C2329.49 2047.29 2298.84 2137.03 2263.17 2212.83C2227.51 2288.63 2184.2 2346.74 2133.26 2387.15C2082.38 2425.73 2024.88 2443.9 1960.75 2441.66C1865.48 2438.34 1796.15 2401.06 1752.78 2329.84C1707.57 2258.55 1669.67 2161.84 1639.09 2039.69C1613.61 1928.74 1581.24 1831.3 1541.98 1747.38C1500.88 1663.39 1449.07 1597.38 1386.55 1549.33C1322.25 1499.39 1243.38 1472.79 1149.94 1469.52C1041.84 1465.75 958.298 1494.02 899.324 1554.33C840.35 1614.64 797.95 1699.38 772.124 1808.55C746.299 1917.71 730.923 2042.83 725.996 2183.91C721.005 2326.83 727.392 2459.13 745.156 2580.83C761.151 2700.62 778.607 2804.88 797.522 2893.59C816.502 2980.48 825.16 3047.73 823.496 3095.37C820.745 3174.16 797.499 3235.72 753.758 3280.05C710.082 3322.55 658.012 3342.75 597.549 3340.64C533.421 3338.4 476.954 3300.65 428.147 3227.41C377.572 3152.26 336.926 3055.45 306.209 2936.97C275.556 2816.66 253.595 2683.82 240.328 2538.43C225.228 2392.98 220.237 2246.97 225.356 2100.39C235.529 1809.07 277.807 1570.23 352.189 1383.88C424.803 1195.63 524.121 1056.93 650.142 967.777C774.332 878.556 917.96 836.793 1081.03 842.488C1194.62 846.455 1297.31 873.889 1389.09 924.789C1479.04 975.626 1555.52 1044.34 1618.54 1130.92C1681.62 1215.68 1731.36 1314.64 1767.77 1427.81C1799.89 1505.98 1829.06 1563.87 1855.26 1601.47C1881.46 1639.07 1915.64 1658.61 1957.78 1660.08C2005.42 1661.75 2043.97 1634.66 2073.43 1578.82C2101.07 1522.92 2128.11 1457.82 2154.55 1383.53C2187.77 1272.79 2235.55 1165.31 2297.89 1061.09C2358.4 956.804 2442.06 872.589 2548.86 808.444C2653.9 742.402 2790.69 712.325 2959.26 718.211C3109.5 723.458 3243.05 760.224 3359.9 828.511C3476.82 894.965 3575.22 992.875 3655.08 1122.24C3733.12 1251.54 3790.83 1411.32 3828.21 1601.58C3865.59 1791.83 3879.87 2013.38 3871.04 2266.23Z" fill="#FEC146"/>
</g>
<defs>
<filter id="filter0_i_5_2" x="180.824" y="624.541" width="3743.1" height="2879.43" filterUnits="userSpaceOnUse" color-interpolation-filters="sRGB">
<feFlood flood-opacity="0" result="BackgroundImageFix"/>
<feBlend mode="normal" in="SourceGraphic" in2="BackgroundImageFix" result="shape"/>
<feColorMatrix in="SourceAlpha" type="matrix" values="0 0 0 0 0 0 0 0 0 0 0 0 0 0 0 0 0 0 127 0" result="hardAlpha"/>
<feOffset dy="1"/>
<feGaussianBlur stdDeviation="2"/>
<feComposite in2="hardAlpha" operator="arithmetic" k2="-1" k3="1"/>
<feColorMatrix type="matrix" values="0 0 0 0 0.0470588 0 0 0 0 0.0470588 0 0 0 0 0.0509804 0 0 0 0.05 0"/>
<feBlend mode="normal" in2="shape" result="effect1_innerShadow_5_2"/>
</filter>
</defs>
</svg>
