<svg width="4096" height="4096" viewBox="0 0 4096 4096" fill="none" xmlns="http://www.w3.org/2000/svg">
<rect width="4096" height="4096" fill="white"/>
<g filter="url(#filter0_i_1_2)">
<path d="M3891.04 2266.23C3885.41 2427.46 3866.29 2580.89 3833.69 2726.5C3802.92 2872.19 3762.59 3002.86 3712.69 3118.52C3662.79 3234.18 3607.34 3324.89 3546.34 3390.63C3483.51 3456.31 3420.03 3488.03 3355.9 3485.79C3306.43 3484.06 3265.49 3474.38 3233.09 3456.74C3200.69 3439.1 3176.69 3417.16 3161.09 3390.94C3143.67 3364.64 3131.77 3337.63 3125.4 3309.89C3117.26 3280.26 3113.61 3253.53 3114.44 3229.71C3116.55 3169.25 3138.57 3090.22 3180.51 2992.62C3222.44 2895.02 3264.91 2781.85 3307.93 2653.11C3350.95 2524.37 3375.18 2382.13 3380.62 2226.39C3384.91 2103.63 3377.85 1990.56 3359.44 1887.19C3341.04 1783.82 3312.11 1692.92 3272.66 1614.5C3231.37 1536.01 3181.23 1474.64 3122.24 1430.39C3061.42 1386.07 2992.53 1362.57 2915.58 1359.88C2805.64 1356.04 2715.85 1379.5 2646.21 1430.27C2576.62 1479.21 2520.99 1548.81 2479.32 1639.07C2437.7 1727.51 2402.97 1829.03 2375.12 1943.62C2349.49 2047.29 2318.84 2137.03 2283.17 2212.83C2247.51 2288.63 2204.2 2346.74 2153.26 2387.15C2102.38 2425.73 2044.88 2443.9 1980.75 2441.66C1885.48 2438.34 1816.15 2401.06 1772.78 2329.84C1727.57 2258.55 1689.67 2161.84 1659.09 2039.69C1633.61 1928.74 1601.24 1831.3 1561.98 1747.38C1520.88 1663.39 1469.07 1597.38 1406.55 1549.33C1342.25 1499.39 1263.38 1472.79 1169.94 1469.52C1061.84 1465.75 978.298 1494.02 919.324 1554.33C860.35 1614.64 817.95 1699.38 792.124 1808.55C766.299 1917.71 750.923 2042.83 745.996 2183.91C741.005 2326.83 747.392 2459.13 765.156 2580.83C781.151 2700.62 798.607 2804.88 817.522 2893.59C836.502 2980.48 845.16 3047.73 843.496 3095.37C840.745 3174.16 817.499 3235.72 773.758 3280.05C730.082 3322.55 678.012 3342.75 617.549 3340.64C553.421 3338.4 496.954 3300.65 448.147 3227.41C397.572 3152.26 356.926 3055.45 326.209 2936.97C295.556 2816.66 273.595 2683.82 260.328 2538.43C245.228 2392.98 240.237 2246.97 245.356 2100.39C255.529 1809.07 297.807 1570.23 372.189 1383.88C444.803 1195.63 544.121 1056.93 670.142 967.777C794.332 878.556 937.96 836.793 1101.03 842.488C1214.62 846.455 1317.31 873.889 1409.09 924.789C1499.04 975.626 1575.52 1044.34 1638.54 1130.92C1701.62 1215.68 1751.36 1314.64 1787.77 1427.81C1819.89 1505.98 1849.06 1563.87 1875.26 1601.47C1901.46 1639.07 1935.64 1658.61 1977.78 1660.08C2025.42 1661.75 2063.97 1634.66 2093.43 1578.82C2121.07 1522.92 2148.11 1457.82 2174.55 1383.53C2207.77 1272.79 2255.55 1165.31 2317.89 1061.09C2378.4 956.804 2462.06 872.589 2568.86 808.444C2673.9 742.402 2810.69 712.325 2979.26 718.211C3129.5 723.458 3263.05 760.224 3379.9 828.511C3496.82 894.965 3595.22 992.875 3675.08 1122.24C3753.12 1251.54 3810.83 1411.32 3848.21 1601.58C3885.59 1791.83 3899.87 2013.38 3891.04 2266.23Z" fill="#FEC146"/>
</g>
<defs>
<filter id="filter0_i_1_2" x="200.824" y="624.541" width="3743.1" height="2879.43" filterUnits="userSpaceOnUse" color-interpolation-filters="sRGB">
<feFlood flood-opacity="0" result="BackgroundImageFix"/>
<feBlend mode="normal" in="SourceGraphic" in2="BackgroundImageFix" result="shape"/>
<feColorMatrix in="SourceAlpha" type="matrix" values="0 0 0 0 0 0 0 0 0 0 0 0 0 0 0 0 0 0 127 0" result="hardAlpha"/>
<feOffset dy="1"/>
<feGaussianBlur stdDeviation="2"/>
<feComposite in2="hardAlpha" operator="arithmetic" k2="-1" k3="1"/>
<feColorMatrix type="matrix" values="0 0 0 0 0.0470588 0 0 0 0 0.0470588 0 0 0 0 0.0509804 0 0 0 0.05 0"/>
<feBlend mode="normal" in2="shape" result="effect1_innerShadow_1_2"/>
</filter>
</defs>
</svg>
