<svg width="96" height="96" viewBox="0 0 96 96" fill="none" xmlns="http://www.w3.org/2000/svg">
<path d="M18.9648 9.99991C18.1753 10.0092 17.4213 10.3294 16.8663 10.891C16.3113 11.4526 16 12.2103 16 12.9999V73.9999C12.686 73.9999 10 76.6859 10 79.9999C10 83.3139 12.686 85.9999 16 85.9999H19H22H74H77H80C83.314 85.9999 86 83.3139 86 79.9999C86 76.6859 83.314 73.9999 80 73.9999V12.9999C79.9999 12.457 79.8524 11.9242 79.5734 11.4585C79.2943 10.9927 78.8941 10.6115 78.4154 10.3553C77.9367 10.0991 77.3974 9.97758 76.8551 10.0037C76.3128 10.0299 75.7878 10.2027 75.3359 10.5038L67.9141 15.4491L59.543 10.4257C59.0768 10.1462 58.5435 9.99854 58 9.99854C57.4565 9.99854 56.9232 10.1462 56.457 10.4257L48 15.4999L39.543 10.4257C39.0768 10.1462 38.5435 9.99854 38 9.99854C37.4565 9.99854 36.9232 10.1462 36.457 10.4257L28.0859 15.4491L20.6641 10.5038C20.1613 10.1686 19.5691 9.99294 18.9648 9.99991ZM38 16.4999L46.457 21.5702C46.9232 21.8497 47.4565 21.9974 48 21.9974C48.5435 21.9974 49.0768 21.8497 49.543 21.5702L58 16.4999L66.457 21.5741C66.9442 21.8659 67.5042 22.0135 68.0719 21.9997C68.6396 21.9859 69.1917 21.8112 69.6641 21.496L74 18.6054V73.9999V79.9999H22V73.9999V18.6054L26.3359 21.496C26.8083 21.8112 27.3604 21.9859 27.9281 21.9997C28.4958 22.0135 29.0558 21.8659 29.543 21.5741L38 16.4999ZM31 31.9999C30.6025 31.9943 30.2078 32.0677 29.8389 32.216C29.47 32.3642 29.1342 32.5843 28.8511 32.8634C28.568 33.1426 28.3432 33.4752 28.1897 33.842C28.0363 34.2087 27.9573 34.6023 27.9573 34.9999C27.9573 35.3975 28.0363 35.7911 28.1897 36.1579C28.3432 36.5246 28.568 36.8573 28.8511 37.1364C29.1342 37.4155 29.47 37.6356 29.8389 37.7838C30.2078 37.9321 30.6025 38.0055 31 37.9999H65C65.3975 38.0055 65.7922 37.9321 66.1611 37.7838C66.53 37.6356 66.8658 37.4155 67.1489 37.1364C67.432 36.8573 67.6568 36.5246 67.8103 36.1579C67.9637 35.7911 68.0427 35.3975 68.0427 34.9999C68.0427 34.6023 67.9637 34.2087 67.8103 33.842C67.6568 33.4752 67.432 33.1426 67.1489 32.8634C66.8658 32.5843 66.53 32.3642 66.1611 32.216C65.7922 32.0677 65.3975 31.9943 65 31.9999H31ZM31 47.9999C30.6025 47.9943 30.2078 48.0677 29.8389 48.216C29.47 48.3642 29.1342 48.5843 28.8511 48.8634C28.568 49.1426 28.3432 49.4752 28.1897 49.842C28.0363 50.2087 27.9573 50.6023 27.9573 50.9999C27.9573 51.3975 28.0363 51.7911 28.1897 52.1579C28.3432 52.5246 28.568 52.8573 28.8511 53.1364C29.1342 53.4155 29.47 53.6356 29.8389 53.7839C30.2078 53.9321 30.6025 54.0055 31 53.9999H49C49.3975 54.0055 49.7922 53.9321 50.1611 53.7839C50.53 53.6356 50.8658 53.4155 51.1489 53.1364C51.432 52.8573 51.6568 52.5246 51.8103 52.1579C51.9637 51.7911 52.0427 51.3975 52.0427 50.9999C52.0427 50.6023 51.9637 50.2087 51.8103 49.842C51.6568 49.4752 51.432 49.1426 51.1489 48.8634C50.8658 48.5843 50.53 48.3642 50.1611 48.216C49.7922 48.0677 49.3975 47.9943 49 47.9999H31ZM61 47.9999C60.6025 47.9943 60.2078 48.0677 59.8389 48.216C59.47 48.3642 59.1342 48.5843 58.8511 48.8634C58.568 49.1426 58.3432 49.4752 58.1897 49.842C58.0363 50.2087 57.9573 50.6023 57.9573 50.9999C57.9573 51.3975 58.0363 51.7911 58.1897 52.1579C58.3432 52.5246 58.568 52.8573 58.8511 53.1364C59.1342 53.4155 59.47 53.6356 59.8389 53.7839C60.2078 53.9321 60.6025 54.0055 61 53.9999H65C65.3975 54.0055 65.7922 53.9321 66.1611 53.7839C66.53 53.6356 66.8658 53.4155 67.1489 53.1364C67.432 52.8573 67.6568 52.5246 67.8103 52.1579C67.9637 51.7911 68.0427 51.3975 68.0427 50.9999C68.0427 50.6023 67.9637 50.2087 67.8103 49.842C67.6568 49.4752 67.432 49.1426 67.1489 48.8634C66.8658 48.5843 66.53 48.3642 66.1611 48.216C65.7922 48.0677 65.3975 47.9943 65 47.9999H61ZM31 59.9999C30.6025 59.9943 30.2078 60.0677 29.8389 60.216C29.47 60.3642 29.1342 60.5843 28.8511 60.8634C28.568 61.1426 28.3432 61.4752 28.1897 61.842C28.0363 62.2087 27.9573 62.6023 27.9573 62.9999C27.9573 63.3975 28.0363 63.7911 28.1897 64.1579C28.3432 64.5246 28.568 64.8573 28.8511 65.1364C29.1342 65.4155 29.47 65.6356 29.8389 65.7839C30.2078 65.9321 30.6025 66.0055 31 65.9999H45C45.3975 66.0055 45.7922 65.9321 46.1611 65.7839C46.53 65.6356 46.8658 65.4155 47.1489 65.1364C47.432 64.8573 47.6568 64.5246 47.8103 64.1579C47.9637 63.7911 48.0427 63.3975 48.0427 62.9999C48.0427 62.6023 47.9637 62.2087 47.8103 61.842C47.6568 61.4752 47.432 61.1426 47.1489 60.8634C46.8658 60.5843 46.53 60.3642 46.1611 60.216C45.7922 60.0677 45.3975 59.9943 45 59.9999H31ZM61 59.9999C60.6025 59.9943 60.2078 60.0677 59.8389 60.216C59.47 60.3642 59.1342 60.5843 58.8511 60.8634C58.568 61.1426 58.3432 61.4752 58.1897 61.842C58.0363 62.2087 57.9573 62.6023 57.9573 62.9999C57.9573 63.3975 58.0363 63.7911 58.1897 64.1579C58.3432 64.5246 58.568 64.8573 58.8511 65.1364C59.1342 65.4155 59.47 65.6356 59.8389 65.7839C60.2078 65.9321 60.6025 66.0055 61 65.9999H65C65.3975 66.0055 65.7922 65.9321 66.1611 65.7839C66.53 65.6356 66.8658 65.4155 67.1489 65.1364C67.432 64.8573 67.6568 64.5246 67.8103 64.1579C67.9637 63.7911 68.0427 63.3975 68.0427 62.9999C68.0427 62.6023 67.9637 62.2087 67.8103 61.842C67.6568 61.4752 67.432 61.1426 67.1489 60.8634C66.8658 60.5843 66.53 60.3642 66.1611 60.216C65.7922 60.0677 65.3975 59.9943 65 59.9999H61Z" fill="#000000"/>
</svg>