<svg width="12" height="12" viewBox="0 0 12 12" fill="none" xmlns="http://www.w3.org/2000/svg">
<path d="M10.9028 5.02075H10.5V5H6V7H8.82575C8.4135 8.16425 7.30575 9 6 9C4.34325 9 3 7.65675 3 6C3 4.34325 4.34325 3 6 3C6.76475 3 7.4605 3.2885 7.99025 3.75975L9.4045 2.3455C8.5115 1.51325 7.317 1 6 1C3.23875 1 1 3.23875 1 6C1 8.76125 3.23875 11 6 11C8.76125 11 11 8.76125 11 6C11 5.66475 10.9655 5.3375 10.9028 5.02075Z" fill="#FFC107"/>
<path d="M1.57666 3.67275L3.21941 4.8775C3.66391 3.777 4.74041 3 6.00016 3C6.76491 3 7.46066 3.2885 7.99041 3.75975L9.40466 2.3455C8.51166 1.51325 7.31716 1 6.00016 1C4.07966 1 2.41416 2.08425 1.57666 3.67275Z" fill="#FF3D00"/>
<path d="M6.00008 11C7.29158 11 8.46508 10.5058 9.35233 9.70205L7.80483 8.39255C7.28605 8.78731 6.65197 9.00075 6.00008 9.00005C4.69958 9.00005 3.59533 8.1708 3.17933 7.01355L1.54883 8.2698C2.37633 9.88905 4.05683 11 6.00008 11Z" fill="#4CAF50"/>
<path d="M10.9028 5.02075H10.5V5H6V7H8.82575C8.62855 7.5541 8.27334 8.03829 7.804 8.39275L7.80475 8.39225L9.35225 9.70175C9.24275 9.80125 11 8.5 11 6C11 5.66475 10.9655 5.3375 10.9028 5.02075Z" fill="#1976D2"/>
</svg>
