<svg width="12" height="12" viewBox="0 0 12 12" fill="none" xmlns="http://www.w3.org/2000/svg">
<path d="M4.49999 11.0001L4.37449 9.24565C4.35833 9.02233 4.38836 8.79809 4.46272 8.58689C4.53707 8.3757 4.65415 8.1821 4.80665 8.01817C4.95915 7.85423 5.1438 7.72348 5.34907 7.63408C5.55435 7.54468 5.77584 7.49854 5.99974 7.49854C6.22364 7.49854 6.44513 7.54468 6.65041 7.63408C6.85568 7.72348 7.04033 7.85423 7.19283 8.01817C7.34533 8.1821 7.46241 8.3757 7.53676 8.58689C7.61112 8.79809 7.64115 9.02233 7.62499 9.24565L7.49999 11.0001" stroke="#000" stroke-linecap="round" stroke-linejoin="round"/>
<path d="M1.17602 6.607C0.999021 5.458 0.911021 4.884 1.12802 4.3745C1.34502 3.865 1.82702 3.517 2.79052 2.8205L3.51052 2.3C4.70902 1.4335 5.30852 1 6.00052 1C6.69152 1 7.29052 1.4335 8.48952 2.3L9.20952 2.8205C10.173 3.517 10.6545 3.8655 10.872 4.3745C11.089 4.884 11.001 5.458 10.8245 6.6065L10.674 7.5865C10.424 9.2145 10.2985 10.0285 9.71452 10.5145C9.13052 11.0005 8.27702 11 6.57002 11H5.43002C3.72252 11 2.86902 11 2.28502 10.5145C1.70102 10.0285 1.57602 9.2145 1.32602 7.586L1.17602 6.607Z" stroke="#000" stroke-linecap="round" stroke-linejoin="round"/>
</svg>
