<svg width="3745" height="2879" viewBox="0 0 3745 2879" fill="none" xmlns="http://www.w3.org/2000/svg">
<g filter="url(#filter0_i_11_2)">
<path d="M3691.16 1641.74C3685.53 1802.98 3666.41 1956.41 3633.81 2102.02C3603.04 2247.7 3562.71 2378.38 3512.81 2494.04C3462.91 2609.7 3407.46 2700.4 3346.46 2766.15C3283.63 2831.83 3220.15 2863.55 3156.02 2861.31C3106.55 2859.58 3065.61 2849.9 3033.21 2832.26C3000.81 2814.62 2976.81 2792.68 2961.21 2766.45C2943.79 2740.16 2931.89 2713.15 2925.52 2685.41C2917.38 2655.77 2913.73 2629.05 2914.56 2605.23C2916.67 2544.76 2938.69 2465.74 2980.63 2368.14C3022.56 2270.54 3065.03 2157.37 3108.05 2028.63C3151.07 1899.89 3175.3 1757.64 3180.74 1601.91C3185.03 1479.15 3177.97 1366.08 3159.56 1262.71C3141.16 1159.34 3112.23 1068.44 3072.78 990.016C3031.49 911.527 2981.35 850.157 2922.36 805.904C2861.54 761.588 2792.65 738.086 2715.7 735.399C2605.76 731.56 2515.97 755.024 2446.33 805.791C2376.74 854.725 2321.11 924.326 2279.44 1014.59C2237.82 1103.03 2203.09 1204.54 2175.24 1319.14C2149.61 1422.81 2118.96 1512.55 2083.29 1588.35C2047.63 1664.15 2004.32 1722.26 1953.38 1762.67C1902.5 1801.25 1845 1819.42 1780.87 1817.18C1685.6 1813.86 1616.27 1776.58 1572.9 1705.36C1527.69 1634.07 1489.79 1537.35 1459.21 1415.21C1433.73 1304.26 1401.36 1206.82 1362.1 1122.89C1321 1038.91 1269.19 972.895 1206.66 924.85C1142.37 874.909 1063.5 848.307 970.056 845.044C861.955 841.269 778.418 869.537 719.444 929.849C660.47 990.161 618.07 1074.9 592.244 1184.06C566.419 1293.23 551.042 1418.35 546.116 1559.43C541.125 1702.35 547.512 1834.65 565.276 1956.34C581.271 2076.14 598.727 2180.4 617.642 2269.11C636.622 2355.99 645.279 2423.25 643.616 2470.89C640.865 2549.68 617.619 2611.24 573.878 2655.57C530.202 2698.07 478.132 2718.27 417.669 2716.16C353.541 2713.92 297.074 2676.17 248.267 2602.92C197.692 2527.78 157.046 2430.97 126.329 2312.49C95.6756 2192.18 73.7152 2059.33 60.4477 1913.95C45.3479 1768.5 40.3572 1622.49 45.4758 1475.91C55.649 1184.59 97.9267 945.751 172.309 759.4C244.923 571.153 344.241 432.452 470.262 343.295C594.452 254.075 738.08 212.312 901.147 218.007C1014.74 221.974 1117.43 249.408 1209.21 300.308C1299.16 351.145 1375.64 419.856 1438.66 506.441C1501.74 591.194 1551.48 690.157 1587.89 803.33C1620.01 881.499 1649.18 939.385 1675.38 976.989C1701.58 1014.59 1735.76 1034.13 1777.9 1035.6C1825.54 1037.27 1864.09 1010.18 1893.55 954.34C1921.19 898.437 1948.23 833.341 1974.67 759.052C2007.89 648.31 2055.67 540.829 2118.01 436.608C2178.52 332.323 2262.18 248.108 2368.98 183.963C2474.02 117.921 2610.81 87.8439 2779.38 93.7303C2929.62 98.9768 3063.17 135.743 3180.02 204.03C3296.94 270.484 3395.33 368.394 3475.2 497.76C3553.24 627.063 3610.95 786.841 3648.33 977.094C3685.71 1167.35 3699.99 1388.9 3691.16 1641.74Z" fill="#000000"/>
</g>
<defs>
<filter id="filter0_i_11_2" x="0.944214" y="0.0603027" width="3743.1" height="2879.43" filterUnits="userSpaceOnUse" color-interpolation-filters="sRGB">
<feFlood flood-opacity="0" result="BackgroundImageFix"/>
<feBlend mode="normal" in="SourceGraphic" in2="BackgroundImageFix" result="shape"/>
<feColorMatrix in="SourceAlpha" type="matrix" values="0 0 0 0 0 0 0 0 0 0 0 0 0 0 0 0 0 0 127 0" result="hardAlpha"/>
<feOffset dy="1"/>
<feGaussianBlur stdDeviation="2"/>
<feComposite in2="hardAlpha" operator="arithmetic" k2="-1" k3="1"/>
<feColorMatrix type="matrix" values="0 0 0 0 0.0470588 0 0 0 0 0.0470588 0 0 0 0 0.0509804 0 0 0 0.05 0"/>
<feBlend mode="normal" in2="shape" result="effect1_innerShadow_11_2"/>
</filter>
</defs>
</svg>
