
<svg width="76" height="72" viewBox="0 0 76 72" fill="none" xmlns="http://www.w3.org/2000/svg">
<path d="M9.5 0C4.5365 0 0.5 4.0365 0.5 9V51C0.5 55.9635 4.5365 60 9.5 60H41.2549C41.1034 59.019 41 58.023 41 57C41 55.977 41.1034 54.981 41.2549 54H9.5C7.8455 54 6.5 52.6545 6.5 51V19.5C6.5 17.8455 7.8455 16.5 9.5 16.5H54.5C56.1545 16.5 57.5 17.8455 57.5 19.5V37.7549C58.481 37.6034 59.477 37.5 60.5 37.5C61.523 37.5 62.519 37.6034 63.5 37.7549V9C63.5 4.0365 59.4635 0 54.5 0H9.5ZM24.5 21C23.672 21 23 21.672 23 22.5V25.5C23 26.328 23.672 27 24.5 27H27.5C28.328 27 29 26.328 29 25.5V22.5C29 21.672 28.328 21 27.5 21H24.5ZM36.5 21C35.672 21 35 21.672 35 22.5V25.5C35 26.328 35.672 27 36.5 27H39.5C40.328 27 41 26.328 41 25.5V22.5C41 21.672 40.328 21 39.5 21H36.5ZM48.5 21C47.672 21 47 21.672 47 22.5V25.5C47 26.328 47.672 27 48.5 27H51.5C52.328 27 53 26.328 53 25.5V22.5C53 21.672 52.328 21 51.5 21H48.5ZM12.5 31.5C11.672 31.5 11 32.172 11 33V36C11 36.828 11.672 37.5 12.5 37.5H15.5C16.328 37.5 17 36.828 17 36V33C17 32.172 16.328 31.5 15.5 31.5H12.5ZM24.5 31.5C23.672 31.5 23 32.172 23 33V36C23 36.828 23.672 37.5 24.5 37.5H27.5C28.328 37.5 29 36.828 29 36V33C29 32.172 28.328 31.5 27.5 31.5H24.5ZM36.5 31.5C35.672 31.5 35 32.172 35 33V36C35 36.828 35.672 37.5 36.5 37.5H39.5C40.328 37.5 41 36.828 41 36V33C41 32.172 40.328 31.5 39.5 31.5H36.5ZM48.5 31.5C47.672 31.5 47 32.172 47 33V36C47 36.828 47.672 37.5 48.5 37.5H51.5C52.328 37.5 53 36.828 53 36V33C53 32.172 52.328 31.5 51.5 31.5H48.5ZM12.5 42C11.672 42 11 42.672 11 43.5V46.5C11 47.328 11.672 48 12.5 48H15.5C16.328 48 17 47.328 17 46.5V43.5C17 42.672 16.328 42 15.5 42H12.5ZM24.5 42C23.672 42 23 42.672 23 43.5V46.5C23 47.328 23.672 48 24.5 48H27.5C28.328 48 29 47.328 29 46.5V43.5C29 42.672 28.328 42 27.5 42H24.5ZM36.5 42C35.672 42 35 42.672 35 43.5V46.5C35 47.328 35.672 48 36.5 48H39.5C40.328 48 41 47.328 41 46.5V43.5C41 42.672 40.328 42 39.5 42H36.5ZM60.5 42C52.2155 42 45.5 48.7155 45.5 57C45.5 65.2845 52.2155 72 60.5 72C68.7845 72 75.5 65.2845 75.5 57C75.5 48.7155 68.7845 42 60.5 42ZM60.5 48C61.3295 48 62 48.672 62 49.5V55.5H68C68.8295 55.5 69.5 56.172 69.5 57C69.5 57.828 68.8295 58.5 68 58.5H62V64.5C62 65.328 61.3295 66 60.5 66C59.6705 66 59 65.328 59 64.5V58.5H53C52.1705 58.5 51.5 57.828 51.5 57C51.5 56.172 52.1705 55.5 53 55.5H59V49.5C59 48.672 59.6705 48 60.5 48Z" fill="#000000"/>
</svg>
