<svg width="12" height="12" viewBox="0 0 12 12" fill="none" xmlns="http://www.w3.org/2000/svg">
<path d="M6 8.5C6.14167 8.5 6.2605 8.452 6.3565 8.356C6.4525 8.26 6.50033 8.14133 6.5 8C6.49967 7.85867 6.45167 7.74 6.356 7.644C6.26033 7.548 6.14167 7.5 6 7.5C5.85833 7.5 5.73967 7.548 5.644 7.644C5.54833 7.74 5.50033 7.85867 5.5 8C5.49967 8.14133 5.54767 8.26017 5.644 8.3565C5.74033 8.45283 5.859 8.50067 6 8.5ZM6 6.5C6.14167 6.5 6.2605 6.452 6.3565 6.356C6.4525 6.26 6.50033 6.14133 6.5 6V4C6.5 3.85833 6.452 3.73967 6.356 3.644C6.26 3.54833 6.14133 3.50033 6 3.5C5.85867 3.49967 5.74 3.54767 5.644 3.644C5.548 3.74033 5.5 3.859 5.5 4V6C5.5 6.14167 5.548 6.2605 5.644 6.3565C5.74 6.4525 5.85867 6.50033 6 6.5ZM6 11C5.30833 11 4.65833 10.8687 4.05 10.606C3.44167 10.3433 2.9125 9.98717 2.4625 9.5375C2.0125 9.08783 1.65633 8.55867 1.394 7.95C1.13167 7.34133 1.00033 6.69133 1 6C0.999667 5.30867 1.131 4.65867 1.394 4.05C1.657 3.44133 2.01317 2.91217 2.4625 2.4625C2.91183 2.01283 3.441 1.65667 4.05 1.394C4.659 1.13133 5.309 1 6 1C6.691 1 7.341 1.13133 7.95 1.394C8.559 1.65667 9.08817 2.01283 9.5375 2.4625C9.98683 2.91217 10.3432 3.44133 10.6065 4.05C10.8698 4.65867 11.001 5.30867 11 6C10.999 6.69133 10.8677 7.34133 10.606 7.95C10.3443 8.55867 9.98817 9.08783 9.5375 9.5375C9.08683 9.98717 8.55767 10.3435 7.95 10.6065C7.34233 10.8695 6.69233 11.0007 6 11Z" fill="#FEC146"/>
</svg>
